# xmcd CD database file
#
# Track frame offsets:
#	150
#	17442
#	30677
#	48868
#	63934
#	83852
#	98870
#	121396
#	137326
#	157234
#	177062
#	196131
#	213963
#	230690
#	247562
#	278107
#	291966
#
# Disc length: 4172 seconds
#
# Revision: 0
# Processed by: cddbd v1.5.1PL2 Copyright (c) Steve Scherf et al.
# Submitted via: CDex 1.51
#
DISCID=de104a11
DTITLE=Various Artist - Da Vinci Code Of Life
DYEAR=2006
DGENRE=New Age
TTITLE0=Eternal Clouds
TTITLE1=Kayama
TTITLE2=For The Father
TTITLE3=Cathar Rhythm
TTITLE4=Sadeness Part 1
TTITLE5=Angels Of The Sea
TTITLE6=Viterbo
TTITLE7=Hibernaculum
TTITLE8=Raindance
TTITLE9=Enea Volare Mezzo
TTITLE10=Hymne Of The Monks
TTITLE11=Deliver Me
TTITLE12=Beyond The Invisible
TTITLE13=Oró
TTITLE14=Ancient Abbay
TTITLE15=Lyra (Ta Muid)
TTITLE16=Heavy Ashes
EXTD=YEAR: 2006
EXTT0=
EXTT1=
EXTT2=
EXTT3=
EXTT4=
EXTT5=
EXTT6=
EXTT7=
EXTT8=
EXTT9=
EXTT10=
EXTT11=
EXTT12=
EXTT13=
EXTT14=
EXTT15=
EXTT16=
PLAYORDER=
